# Blender v3.1.2 OBJ File: ''
# www.blender.org
mtllib bossframe.mtl
o Cube.003
v 2.278564 -2.300838 1.198314
v 1.497396 -2.193227 0.822836
v 2.064840 -2.327641 0.619525
v 1.828271 -1.564254 1.330480
v 1.175815 -2.039621 1.593422
v 1.711122 -2.166423 1.401624
v 1.614545 -1.591057 0.751690
v 2.296709 -1.135778 0.478708
v 2.181989 -1.725471 0.548380
v 2.395713 -1.698668 1.127169
v 1.429370 -1.614280 0.250221
v 1.942992 -0.974559 1.260808
v 1.729268 -1.001364 0.682020
v 2.510436 -1.108974 1.057498
v 1.879665 -2.350864 0.118055
v 1.312222 -2.216450 0.321366
v 1.996814 -1.748694 0.046910
v 1.079240 -1.464256 0.943488
v 0.962090 -2.066425 1.014632
v 1.292964 -1.437452 1.522276
v 2.975285 1.244153 0.870733
v 2.290691 0.776398 1.145190
v 2.858134 0.641984 0.941878
v 2.194115 1.351764 0.495256
v 1.872535 1.505369 1.265841
v 2.407841 1.378567 1.074044
v 2.076966 0.749594 0.566402
v 2.435112 0.588932 -0.203708
v 2.644409 0.615180 0.363090
v 2.761559 1.217348 0.291944
v 1.975466 0.227867 0.628043
v 1.984818 1.325517 -0.071542
v 1.867669 0.723347 -0.000397
v 2.552261 1.191102 -0.274853
v 2.756634 0.120257 1.003520
v 2.189192 0.254670 1.206831
v 2.542909 0.093453 0.424731
v 1.541661 0.876396 0.758198
v 1.755386 0.903200 1.336986
v 1.658810 1.478565 0.687052
v 1.648186 1.283486 -2.461978
v 1.294468 1.444704 -1.679879
v 1.861911 1.310290 -1.883189
v 0.963594 0.815730 -2.187522
v 0.545438 1.544703 -2.066870
v 1.080743 1.417900 -2.258668
v 1.177319 0.842534 -1.608732
v 1.630040 0.118426 -1.742373
v 1.744762 0.708120 -1.812044
v 1.531035 0.681316 -2.390833
v 1.362494 0.865757 -1.107263
v 0.848871 0.226038 -2.117851
v 1.062597 0.252840 -1.539061
v 1.416314 0.091623 -2.321161
v 2.047086 1.333513 -1.381719
v 1.479643 1.467927 -1.178408
v 1.929936 0.731344 -1.310574
v 0.642013 0.969336 -1.416936
v 0.759163 1.571505 -1.488081
v 0.428287 0.942532 -1.995725
v -0.863782 2.054449 1.351830
v -0.082613 1.946839 1.727309
v -0.296339 1.920035 1.148520
v -0.199762 1.344669 1.798454
v 0.452694 1.820037 1.535513
v -0.413488 1.317866 1.219666
v -1.095653 0.862586 1.492648
v -0.980931 1.452280 1.422977
v -0.767206 1.479083 2.001765
v -0.598662 1.294643 0.718195
v -0.314486 0.754975 1.868126
v -0.528209 0.728172 1.289337
v -0.881928 0.889390 2.071436
v -1.048956 2.031226 0.850361
v -0.481513 1.896812 0.647050
v -1.166105 1.429057 0.921507
v 0.238967 1.793233 0.956724
v 0.335544 1.217867 1.606658
v 0.121818 1.191063 1.027869
v -1.401920 -0.803129 2.270626
v -0.951626 -1.539712 2.138461
v -0.834478 -0.937543 2.067316
v -1.165352 -1.566517 1.559672
v -0.416321 -1.666515 1.946664
v -1.048203 -0.964346 1.488527
v -1.824943 -0.856181 1.125040
v -1.615645 -0.829933 1.691838
v -1.519070 -1.405299 2.341771
v -0.946704 -0.442620 1.426885
v -1.732795 -1.432103 1.762983
v -1.374650 -1.592765 0.992875
v -1.257500 -0.990595 0.921730
v -1.942093 -1.458350 1.196185
v -1.300421 -0.281402 2.208986
v -0.732979 -0.415817 2.005675
v -1.514146 -0.308206 1.630196
v -0.512897 -1.091148 1.296730
v -0.299173 -1.064345 1.875519
v -0.630046 -1.693318 1.367875
v -1.967766 2.123204 -1.434226
v -1.871189 1.547838 -0.784292
v -1.754039 2.150007 -0.855436
v -1.517472 1.386620 -1.566392
v -2.195430 0.952968 -1.295965
v -2.084915 1.521034 -1.363081
v -1.186597 2.015593 -1.058748
v -0.748060 1.281794 -1.186701
v -0.630911 1.883963 -1.257847
v -1.400323 1.988789 -1.637537
v -1.118572 1.436647 -0.486133
v -1.303746 1.413424 -0.987602
v -0.961786 1.254991 -1.765491
v -0.844636 1.857159 -1.836635
v -1.568866 2.173230 -0.353968
v -1.686016 1.571061 -0.282822
v -1.001423 2.038816 -0.557279
v -1.981703 0.979771 -0.717175
v -1.627986 0.818553 -1.499275
v -1.414262 0.845357 -0.920487
v -2.848989 -1.462385 -0.920120
v -2.067820 -1.569996 -0.544642
v -2.635263 -1.435581 -0.341330
v -2.164397 -0.994630 -1.194576
v -1.746240 -1.723601 -1.315227
v -2.281546 -1.596800 -1.123431
v -1.950670 -0.967826 -0.615787
v -2.403391 -0.243719 -0.482147
v -2.518112 -0.833412 -0.412476
v -2.731839 -0.860216 -0.991265
v -1.765496 -0.944604 -0.114317
v -2.049674 -0.404937 -1.264247
v -1.835948 -0.378133 -0.685458
v -2.617117 -0.270522 -1.060935
v -2.450089 -1.412358 0.160139
v -1.882645 -1.546773 -0.043172
v -2.332940 -0.810189 0.088994
v -1.532514 -1.696798 -0.736438
v -1.629090 -1.121432 -1.386372
v -1.415364 -1.094629 -0.807584
v 0.949797 -2.327472 -2.036867
v 1.280671 -1.698499 -1.529222
v 1.163522 -2.300669 -1.458077
v 1.066946 -1.725302 -2.108012
v 0.610018 -1.022822 -1.971817
v 1.177460 -1.157236 -2.175128
v 0.713228 -1.564085 -1.325912
v 0.040393 -2.034625 -1.055668
v 0.596080 -2.166255 -1.254766
v 0.382354 -2.193058 -1.833556
v 0.898403 -1.540863 -0.824441
v 0.499504 -1.590888 -1.904701
v -0.056183 -1.459260 -1.705603
v 0.157542 -1.432455 -1.126813
v -0.173331 -2.061428 -1.634456
v 1.348696 -2.277446 -0.956607
v 1.465846 -1.675276 -1.027752
v 0.781253 -2.143033 -0.753296
v 1.391187 -1.130433 -1.596338
v 0.823743 -0.996019 -1.393027
v -0.650055 2.081253 1.930620
vt 0.766627 0.705905
vt 0.830109 0.642422
vt 0.830109 0.705905
vt 0.598026 0.519053
vt 0.657913 0.582535
vt 0.598026 0.582535
vt 0.663788 0.831554
vt 0.725955 0.895037
vt 0.663788 0.895036
vt 0.657913 0.520368
vt 0.721395 0.456886
vt 0.721395 0.520368
vt 0.912457 0.831554
vt 0.967458 0.895036
vt 0.912457 0.895036
vt 0.917356 0.507334
vt 0.757156 0.705646
vt 0.564779 0.732008
vt 0.564779 0.795490
vt 0.598026 0.456886
vt 0.563464 0.922454
vt 0.757156 0.769128
vt 0.563464 0.858972
vt 0.657913 0.582535
vt 0.651882 0.774124
vt 0.588400 0.837606
vt 0.588400 0.774124
vt 0.776397 0.520368
vt 0.944998 0.582535
vt 1.000000 0.646018
vt 0.944998 0.646018
vt 0.885111 0.705905
vt 0.601621 0.895036
vt 0.920951 0.819835
vt 0.601621 0.831554
vt 0.766627 0.642422
vt 0.830109 0.582535
vt 0.793987 0.883318
vt 0.853874 0.946800
vt 0.793987 0.946800
vt 0.902046 0.332552
vt 0.961933 0.396034
vt 0.902046 0.396034
vt 0.638672 0.764218
vt 0.702154 0.700735
vt 0.702154 0.764218
vt 0.857469 0.507334
vt 0.917356 0.570817
vt 0.857469 0.570817
vt 0.850290 0.831554
vt 0.912457 0.895036
vt 0.850290 0.895036
vt 0.657913 0.394719
vt 0.721395 0.331236
vt 0.721395 0.394719
vt 0.957048 0.459516
vt 0.902047 0.396034
vt 0.957048 0.396034
vt 0.793987 0.507334
vt 0.775251 0.462938
vt 0.711769 0.526420
vt 0.711769 0.462938
vt 0.857469 0.445167
vt 0.915897 0.000000
vt 0.853730 0.063482
vt 0.853730 0.000000
vt 0.657913 0.456886
vt 0.775251 0.589903
vt 0.711769 0.653385
vt 0.711769 0.589903
vt 0.776397 0.394719
vt 0.907896 0.958519
vt 0.962898 0.895036
vt 0.962898 0.958519
vt 0.757156 0.764218
vt 0.857469 0.883318
vt 0.920951 0.819835
vt 0.920951 0.883318
vt 0.638672 0.700735
vt 0.702154 0.640848
vt 0.902046 0.269069
vt 0.961933 0.332552
vt 0.902046 0.332552
vt 0.848010 0.958519
vt 0.788122 0.895036
vt 0.848010 0.895036
vt 0.793987 0.819835
vt 0.857469 0.756353
vt 0.857469 0.819835
vt 0.651882 0.587272
vt 0.711769 0.650754
vt 0.651882 0.650754
vt 0.601621 0.831554
vt 0.663788 0.895037
vt 0.601621 0.895036
vt 0.648143 0.644702
vt 0.967473 0.696466
vt 0.967473 0.632984
vt 0.970899 0.063482
vt 0.915897 0.000000
vt 0.970899 0.000000
vt 0.588400 0.587272
vt 0.564779 0.605043
vt 0.757156 0.578681
vt 0.757156 0.515199
vt 0.651882 0.525105
vt 0.839879 0.332552
vt 0.902046 0.396034
vt 0.839879 0.396034
vt 0.967473 0.570817
vt 0.648143 0.582535
vt 0.564779 0.668525
vt 0.757156 0.642164
vt 0.757156 0.578681
vt 0.912471 0.696466
vt 0.912471 0.632984
vt 0.643401 0.964571
vt 0.588400 0.901088
vt 0.643401 0.901088
vt 0.912471 0.819835
vt 0.711769 0.716867
vt 0.775251 0.780349
vt 0.711769 0.780349
vt 0.793987 0.756353
vt 0.857469 0.696466
vt 0.661508 0.958519
vt 0.601621 0.895036
vt 0.661508 0.895036
vt 0.725955 0.895036
vt 0.785843 0.958519
vt 0.725955 0.958519
vt 0.821629 0.708185
vt 0.885111 0.771667
vt 0.821629 0.771667
vt 0.857469 0.381685
vt 0.917356 0.445167
vt 0.857469 0.445167
vt 0.700839 0.827700
vt 0.638672 0.764218
vt 0.700839 0.764218
vt 0.776397 0.267754
vt 0.712915 0.331237
vt 0.712915 0.267754
vt 0.711769 0.907314
vt 0.766771 0.970796
vt 0.711769 0.970796
vt 0.793987 0.381685
vt 0.775251 0.589903
vt 0.711769 0.526420
vt 0.775251 0.526420
vt 0.857469 0.319518
vt 0.902047 0.459516
vt 0.839880 0.396034
vt 0.902047 0.396034
vt 0.776397 0.205587
vt 0.757156 0.769128
vt 0.564779 0.795490
vt 0.564779 0.858972
vt 0.657913 0.267754
vt 0.693674 0.891182
vt 0.748675 0.827700
vt 0.748675 0.891182
vt 0.766627 0.771667
vt 0.766627 0.708185
vt 0.775251 0.399456
vt 0.711769 0.462938
vt 0.711769 0.399456
vt 0.821629 0.831554
vt 0.944998 0.646017
vt 0.885111 0.582535
vt 0.944998 0.582535
vt 0.961934 0.269069
vt 0.902047 0.205587
vt 0.961934 0.205587
vt 0.790247 0.000000
vt 0.853730 0.063482
vt 0.790247 0.063482
vt 0.857469 0.256035
vt 0.917356 0.319518
vt 0.857469 0.319518
vt 0.839880 0.459517
vt 0.902047 0.522999
vt 0.839880 0.522999
vt 0.703145 0.644702
vt 0.766627 0.708185
vt 0.703145 0.708185
vt 0.700839 0.764218
vt 0.755841 0.827700
vt 0.700839 0.827700
vt 0.793987 0.256035
vt 0.839880 0.269069
vt 0.776397 0.205587
vt 0.839880 0.205587
vt 0.857469 0.193868
vt 0.588400 0.837606
vt 0.650567 0.901088
vt 0.588400 0.901088
vt 0.766627 0.582535
vt 0.766627 0.644702
vt 0.711769 0.780349
vt 0.775251 0.843832
vt 0.711769 0.843832
vt 0.648143 0.644702
vt 0.638672 0.827700
vt 0.693674 0.891182
vt 0.638672 0.891182
vt 0.735246 0.063482
vt 0.735246 0.000000
vt 0.807208 0.125649
vt 0.870691 0.189132
vt 0.807208 0.189132
vt 0.790247 0.123369
vt 0.917356 0.946800
vt 0.857469 0.883318
vt 0.917356 0.883318
vt 0.907897 0.958519
vt 0.848009 0.895036
vt 0.907897 0.895036
vt 0.648143 0.831554
vt 0.711625 0.768072
vt 0.711625 0.831554
vt 0.977243 0.383000
vt 0.917356 0.319518
vt 0.977243 0.319518
vt 0.932858 0.125649
vt 0.870691 0.189132
vt 0.870691 0.125649
vt 0.912471 0.632984
vt 0.848989 0.696466
vt 0.848989 0.632984
vt 1.000000 0.772982
vt 0.944998 0.709500
vt 1.000000 0.709500
vt 0.657913 0.394719
vt 0.776397 0.332552
vt 0.839880 0.396034
vt 0.776397 0.396034
vt 0.977243 0.445167
vt 0.839880 0.205587
vt 0.902047 0.269069
vt 0.839880 0.269069
vt 0.848989 0.570817
vt 0.912471 0.570817
vt 0.857469 0.883318
vt 0.793987 0.819835
vt 0.857469 0.819835
vt 0.793987 0.696466
vt 0.793987 0.632984
vt 0.987860 0.189132
vt 0.932858 0.125649
vt 0.987860 0.125649
vt 0.766627 0.831554
vt 0.616761 0.189132
vt 0.680244 0.125649
vt 0.680244 0.189132
vt 0.648143 0.768072
vt 0.711625 0.708185
vt 0.723675 0.958519
vt 0.663788 0.895036
vt 0.723675 0.895036
vt 0.885111 0.772982
vt 0.944998 0.709500
vt 0.944998 0.772982
vt 0.912471 0.819835
vt 0.975953 0.756353
vt 0.975953 0.819835
vt 0.598026 0.267754
vt 0.657913 0.331236
vt 0.598026 0.331237
vt 0.850290 0.895036
vt 0.788122 0.831554
vt 0.850290 0.831554
vt 0.735246 0.062167
vt 0.671763 0.125649
vt 0.671763 0.062167
vt 1.000000 0.709500
vt 0.944998 0.646018
vt 1.000000 0.646018
vt 0.917356 0.319518
vt 0.917356 0.256035
vt 0.743726 0.125649
vt 0.807208 0.189132
vt 0.743726 0.189132
vt 0.627555 0.217891
vt 0.711769 0.843832
vt 0.773936 0.907314
vt 0.711769 0.907314
vt 0.671763 0.000000
vt 0.735246 0.000000
vt 0.711769 0.716867
vt 0.775251 0.653385
vt 0.775251 0.716867
vt 0.616761 0.125649
vt 0.616761 0.062167
vt 0.902047 0.522999
vt 0.957048 0.459517
vt 0.957048 0.522999
vt 0.648143 0.831554
vt 0.839880 0.522999
vt 0.776397 0.459516
vt 0.839880 0.459516
vt 0.912471 0.756353
vt 0.975953 0.696466
vt 0.711769 0.901088
vt 0.651882 0.837606
vt 0.711769 0.837606
vt 0.711769 0.837606
vt 0.651882 0.774124
vt 0.711769 0.774124
vt 0.588400 0.774124
vt 0.651882 0.710641
vt 0.651882 0.774124
vt 0.651882 0.525105
vt 0.711769 0.461623
vt 0.711769 0.525105
vt 0.788122 0.895036
vt 0.725955 0.831554
vt 0.788122 0.831554
vt 0.757156 0.577366
vt 0.693674 0.640848
vt 0.693674 0.577366
vt 0.706884 0.964571
vt 0.651882 0.901088
vt 0.706884 0.901088
vt 0.588400 0.461623
vt 0.651882 0.461623
vt 0.776397 0.396034
vt 0.839880 0.459516
vt 0.776397 0.459516
vt 0.588400 0.399456
vt 0.651882 0.399456
vt 0.839879 0.269070
vt 0.902046 0.332552
vt 0.839879 0.332552
vt 0.693674 0.515199
vt 0.757156 0.515199
vt 0.743726 0.125649
vt 0.680244 0.189132
vt 0.680244 0.125649
vt 0.638672 0.640848
vt 0.638672 0.577366
vt 0.812158 0.896093
vt 0.757156 0.832610
vt 0.812158 0.832610
vt 0.706884 0.774124
vt 0.839880 0.332552
vt 0.776397 0.269069
vt 0.839880 0.269069
vt 0.588400 0.710641
vt 0.651882 0.650754
vt 0.977243 0.946800
vt 0.917356 0.883318
vt 0.977243 0.883318
vt 0.944998 0.709500
vt 0.885111 0.646018
vt 0.944998 0.646018
vt 0.657913 0.519053
vt 0.725955 0.831554
vt 0.657913 0.456886
vt 0.967458 0.831554
vt 0.917356 0.570817
vt 0.757156 0.642164
vt 0.917356 0.445167
vt 0.757156 0.832611
vt 0.721395 0.582535
vt 0.651882 0.837606
vt 0.776397 0.456886
vt 1.000000 0.582535
vt 0.885111 0.642422
vt 0.920951 0.883318
vt 0.766627 0.582535
vt 0.853874 0.883318
vt 0.961933 0.332552
vt 0.917356 0.507334
vt 0.912457 0.831554
vt 0.657913 0.331236
vt 0.902047 0.459516
vt 0.793987 0.570817
vt 0.775251 0.526420
vt 0.793987 0.445167
vt 0.915897 0.063482
vt 0.721395 0.456886
vt 0.775251 0.653385
vt 0.776397 0.331236
vt 0.907896 0.895036
vt 0.757156 0.700735
vt 0.857469 0.819835
vt 0.638672 0.640848
vt 0.961933 0.269069
vt 0.788122 0.958519
vt 0.711769 0.587272
vt 0.663788 0.831554
vt 0.648143 0.708185
vt 0.915897 0.063482
vt 0.588400 0.650754
vt 0.564779 0.668525
vt 0.588400 0.525105
vt 0.902046 0.332552
vt 0.564779 0.732007
vt 0.588400 0.964571
vt 0.912471 0.756353
vt 0.775251 0.716867
vt 0.793987 0.696466
vt 0.601621 0.958519
vt 0.785843 0.895036
vt 0.885111 0.708185
vt 0.917356 0.381685
vt 0.638672 0.827700
vt 0.776397 0.331237
vt 0.766771 0.907314
vt 0.793987 0.445167
vt 0.711769 0.589903
vt 0.793987 0.319518
vt 0.839880 0.459516
vt 0.712915 0.205587
vt 0.757156 0.705646
vt 0.657913 0.331237
vt 0.693674 0.827700
vt 0.775251 0.462938
vt 0.885111 0.831554
vt 0.885111 0.646017
vt 0.902047 0.269069
vt 0.853730 0.000000
vt 0.917356 0.256036
vt 0.902047 0.459517
vt 0.755841 0.764218
vt 0.793987 0.319518
vt 0.776397 0.269069
vt 0.793987 0.193868
vt 0.650567 0.837606
vt 0.703145 0.582535
vt 0.775251 0.780349
vt 0.648143 0.708185
vt 0.693674 0.827700
vt 0.870691 0.125649
vt 0.853730 0.123369
vt 0.857469 0.946800
vt 0.848009 0.958519
vt 0.917356 0.383000
vt 0.932858 0.189132
vt 0.912471 0.696466
vt 0.944998 0.772982
vt 0.657913 0.331236
vt 0.839880 0.332552
vt 0.657913 0.456886
vt 0.902047 0.205587
vt 0.793987 0.883318
vt 0.932858 0.189132
vt 0.766627 0.768072
vt 0.616761 0.125649
vt 0.648143 0.708185
vt 0.663788 0.958519
vt 0.885111 0.709500
vt 0.657913 0.267754
vt 0.788122 0.895036
vt 0.735246 0.125649
vt 0.944998 0.709500
vt 0.807208 0.125649
vt 0.917356 0.193868
vt 0.773936 0.843832
vt 0.711769 0.653385
vt 0.902047 0.459517
vt 0.648143 0.768072
vt 0.776397 0.522999
vt 0.912471 0.696466
vt 0.651882 0.901088
vt 0.651882 0.837606
vt 0.725955 0.895036
vt 0.757156 0.640848
vt 0.651882 0.964571
vt 0.588400 0.525105
vt 0.839880 0.396034
vt 0.902046 0.269070
vt 0.743726 0.189132
vt 0.757156 0.896093
vt 0.706884 0.710641
vt 0.776397 0.332552
vt 0.588400 0.650754
vt 0.917356 0.946800
vt 0.885111 0.709500
vn -0.1897 -0.9751 0.1152
vn 0.3461 0.0434 0.9372
vn -0.3461 -0.0434 -0.9372
vn 0.9188 -0.2177 -0.3292
vn 0.9188 -0.2176 -0.3292
vn 0.1897 0.9751 -0.1152
vn -0.9188 0.2177 0.3292
vn -0.9188 0.2176 0.3292
usemtl Material.003
s 1
f 1/1/1 2/2/1 3/3/1
f 4/4/2 5/5/2 6/6/2
f 7/7/3 8/8/3 9/9/3
f 10/10/4 3/11/5 9/12/5
f 9/13/6 11/14/6 7/15/6
f 6/6/2 10/16/2 4/4/2
f 12/17/6 8/18/6 13/19/6
f 10/16/2 12/20/2 4/4/2
f 4/21/7 13/22/7 7/23/7
f 9/12/5 14/24/5 10/10/4
f 11/25/3 15/26/3 16/27/3
f 3/11/5 17/28/5 9/12/5
f 7/29/8 16/30/8 2/31/8
f 2/2/1 15/32/1 3/3/1
f 5/33/7 18/34/7 19/35/7
f 6/36/1 19/37/1 2/2/1
f 7/38/6 20/39/6 4/40/6
f 2/41/3 18/42/3 7/43/3
f 21/44/2 22/45/2 23/46/2
f 24/47/6 25/48/6 26/49/6
f 27/50/1 28/51/1 29/52/1
f 30/53/4 23/54/4 29/55/4
f 29/56/3 31/57/3 27/58/3
f 26/49/6 30/59/6 24/47/6
f 32/60/3 28/61/3 33/62/3
f 30/59/6 32/63/6 24/47/6
f 27/64/8 32/65/8 33/66/8
f 29/55/4 34/67/4 30/53/4
f 31/68/1 35/69/1 36/70/1
f 23/54/4 37/71/4 29/55/4
f 22/72/8 31/73/8 36/74/8
f 22/45/2 35/75/2 23/46/2
f 25/76/8 38/77/8 39/78/8
f 26/79/2 39/80/2 22/45/2
f 27/81/3 40/82/3 24/83/3
f 22/84/1 38/85/1 27/86/1
f 41/87/6 42/88/6 43/89/6
f 44/90/3 45/91/3 46/92/3
f 47/93/2 48/94/2 49/95/2
f 50/96/5 43/97/5 49/98/5
f 49/99/1 51/100/1 47/101/1
f 46/92/3 50/102/3 44/90/3
f 52/103/1 48/104/1 53/105/1
f 50/102/3 52/106/3 44/90/3
f 44/107/7 53/108/7 47/109/8
f 50/96/5 48/110/5 54/111/5
f 51/112/2 55/113/2 56/114/2
f 49/98/5 55/115/4 57/116/4
f 47/117/7 56/118/7 42/119/7
f 42/88/6 55/120/6 43/89/6
f 45/121/7 58/122/7 59/123/7
f 46/124/6 59/125/6 42/88/6
f 47/126/1 60/127/1 44/128/1
f 42/129/2 58/130/2 47/131/2
f 61/132/6 62/133/6 63/134/6
f 64/135/2 65/136/2 62/137/2
f 66/138/3 67/139/3 68/140/3
f 69/141/7 61/142/7 68/143/7
f 68/144/1 70/145/1 66/146/1
f 62/137/2 69/147/2 64/135/2
f 71/148/1 67/149/1 72/150/1
f 69/147/2 71/151/2 64/135/2
f 64/152/4 72/153/4 66/154/5
f 68/143/7 73/155/8 69/141/7
f 70/156/3 74/157/3 75/158/3
f 61/142/7 76/159/7 68/143/7
f 63/160/5 70/161/5 75/162/5
f 61/132/6 75/163/6 74/164/6
f 77/165/4 78/166/4 79/167/5
f 62/133/6 77/168/6 63/134/6
f 66/169/1 78/170/1 64/171/1
f 63/172/3 79/173/3 66/174/3
f 80/175/2 81/176/2 82/177/2
f 83/178/1 84/179/1 81/180/1
f 85/181/6 86/182/6 87/183/6
f 87/184/7 88/185/7 80/186/8
f 87/187/3 89/188/3 85/189/3
f 81/180/1 90/190/1 83/178/1
f 91/191/3 86/192/3 92/193/3
f 90/190/1 91/194/1 83/178/1
f 83/195/5 92/196/5 85/197/5
f 87/184/7 93/198/7 90/199/7
f 89/200/6 94/201/6 95/202/6
f 80/186/8 96/203/8 87/184/7
f 85/204/4 95/205/4 82/206/4
f 80/175/2 95/207/2 94/208/2
f 84/209/5 97/210/5 98/211/5
f 81/176/2 98/212/2 82/177/2
f 85/213/3 99/214/3 83/215/3
f 82/216/6 97/217/6 85/218/6
f 100/219/8 101/220/8 102/221/7
f 103/222/3 104/223/3 105/224/3
f 106/225/2 107/226/2 108/227/2
f 109/228/6 102/229/6 106/230/6
f 106/231/5 110/232/5 111/233/4
f 105/224/3 109/234/3 103/222/3
f 112/235/4 108/236/4 107/237/4
f 109/234/3 112/238/3 103/222/3
f 103/239/1 107/240/1 111/241/1
f 109/228/6 108/242/6 113/243/6
f 110/244/2 114/245/2 115/246/2
f 106/230/6 114/247/6 116/248/6
f 111/249/1 115/250/1 101/251/1
f 101/220/8 114/252/7 102/221/7
f 117/253/1 118/254/1 119/255/1
f 105/256/8 117/257/8 101/220/8
f 111/258/5 118/259/5 103/260/5
f 111/261/2 117/262/2 119/263/2
f 120/264/1 121/265/1 122/266/1
f 123/267/3 124/268/3 125/269/3
f 126/270/2 127/271/2 128/272/2
f 129/273/7 122/274/7 128/275/7
f 128/276/6 130/277/6 126/278/6
f 123/267/3 120/279/3 129/280/3
f 131/281/6 127/282/6 132/283/6
f 129/280/3 131/284/3 123/267/3
f 123/285/4 132/286/4 126/287/5
f 129/273/7 127/288/8 133/289/8
f 130/290/2 134/291/2 135/292/2
f 128/275/7 134/293/8 136/294/8
f 121/295/4 130/296/4 135/297/5
f 121/265/1 134/298/1 122/266/1
f 137/299/4 138/300/4 139/301/4
f 125/302/1 137/303/1 121/265/1
f 126/304/6 138/305/6 123/306/6
f 121/307/2 139/308/2 126/309/2
f 140/310/5 141/311/4 142/312/5
f 143/313/3 144/314/3 145/315/3
f 146/316/2 147/317/2 148/318/2
f 149/319/1 142/320/1 148/321/1
f 148/322/8 150/323/8 146/324/8
f 143/313/3 149/325/3 151/326/3
f 152/327/8 147/328/8 153/329/8
f 151/326/3 154/330/3 152/331/3
f 151/332/6 153/333/6 146/334/6
f 149/319/1 147/335/1 154/336/1
f 150/337/2 155/338/2 156/339/2
f 148/321/1 155/340/1 157/341/1
f 146/342/6 156/343/6 141/344/6
f 141/311/4 155/345/4 142/312/5
f 158/346/6 144/347/6 159/348/6
f 143/349/4 158/350/4 141/311/4
f 146/351/7 144/352/7 151/353/8
f 141/354/2 159/355/2 146/356/2
f 1/1/1 6/36/1 2/2/1
f 4/4/2 20/357/2 5/5/2
f 7/7/3 13/358/3 8/8/3
f 10/10/4 1/359/5 3/11/5
f 9/13/6 17/360/6 11/14/6
f 6/6/2 1/361/2 10/16/2
f 12/17/6 14/362/6 8/18/6
f 10/16/2 14/363/2 12/20/2
f 4/21/7 12/364/8 13/22/7
f 9/12/5 8/365/5 14/24/5
f 11/25/3 17/366/3 15/26/3
f 3/11/5 15/367/5 17/28/5
f 7/29/8 11/368/8 16/30/8
f 2/2/1 16/369/1 15/32/1
f 5/33/7 20/370/7 18/34/7
f 6/36/1 5/371/1 19/37/1
f 7/38/6 18/372/6 20/39/6
f 2/41/3 19/373/3 18/42/3
f 21/44/2 26/79/2 22/45/2
f 24/47/6 40/374/6 25/48/6
f 27/50/1 33/375/1 28/51/1
f 30/53/4 21/376/4 23/54/4
f 29/56/3 37/377/3 31/57/3
f 26/49/6 21/378/6 30/59/6
f 32/60/3 34/379/3 28/61/3
f 30/59/6 34/380/6 32/63/6
f 27/64/8 24/381/7 32/65/8
f 29/55/4 28/382/5 34/67/4
f 31/68/1 37/383/1 35/69/1
f 23/54/4 35/384/5 37/71/4
f 22/72/8 27/385/7 31/73/8
f 22/45/2 36/386/2 35/75/2
f 25/76/8 40/387/8 38/77/8
f 26/79/2 25/388/2 39/80/2
f 27/81/3 38/389/3 40/82/3
f 22/84/1 39/390/1 38/85/1
f 41/87/6 46/124/6 42/88/6
f 44/90/3 60/391/3 45/91/3
f 47/93/2 53/392/2 48/94/2
f 50/96/5 41/393/4 43/97/5
f 49/99/1 57/394/1 51/100/1
f 46/92/3 41/395/3 50/102/3
f 52/103/1 54/396/1 48/104/1
f 50/102/3 54/397/3 52/106/3
f 44/107/7 52/398/7 53/108/7
f 50/96/5 49/98/5 48/110/5
f 51/112/2 57/399/2 55/113/2
f 49/98/5 43/97/5 55/115/4
f 47/117/7 51/400/8 56/118/7
f 42/88/6 56/401/6 55/120/6
f 45/121/7 60/402/7 58/122/7
f 46/124/6 45/403/6 59/125/6
f 47/126/1 58/404/1 60/127/1
f 42/129/2 59/405/2 58/130/2
f 61/132/6 160/406/6 62/133/6
f 64/135/2 78/407/2 65/136/2
f 66/138/3 72/408/3 67/139/3
f 69/141/7 160/409/7 61/142/7
f 68/144/1 76/410/1 70/145/1
f 62/137/2 160/411/2 69/147/2
f 71/148/1 73/412/1 67/149/1
f 69/147/2 73/413/2 71/151/2
f 64/152/4 71/414/4 72/153/4
f 68/143/7 67/415/8 73/155/8
f 70/156/3 76/416/3 74/157/3
f 61/142/7 74/417/8 76/159/7
f 63/160/5 66/418/5 70/161/5
f 61/132/6 63/134/6 75/163/6
f 77/165/4 65/419/4 78/166/4
f 62/133/6 65/420/6 77/168/6
f 66/169/1 79/421/1 78/170/1
f 63/172/3 77/422/3 79/173/3
f 80/175/2 88/423/2 81/176/2
f 83/178/1 99/424/1 84/179/1
f 85/181/6 92/425/6 86/182/6
f 87/184/7 90/199/7 88/185/7
f 87/187/3 96/426/3 89/188/3
f 81/180/1 88/427/1 90/190/1
f 91/191/3 93/428/3 86/192/3
f 90/190/1 93/429/1 91/194/1
f 83/195/5 91/430/4 92/196/5
f 87/184/7 86/431/7 93/198/7
f 89/200/6 96/432/6 94/201/6
f 80/186/8 94/433/8 96/203/8
f 85/204/4 89/434/4 95/205/4
f 80/175/2 82/177/2 95/207/2
f 84/209/5 99/435/5 97/210/5
f 81/176/2 84/436/2 98/212/2
f 85/213/3 97/437/3 99/214/3
f 82/216/6 98/438/6 97/217/6
f 100/219/8 105/256/8 101/220/8
f 103/222/3 118/439/3 104/223/3
f 106/225/2 111/440/2 107/226/2
f 109/228/6 100/441/6 102/229/6
f 106/231/5 116/442/5 110/232/5
f 105/224/3 100/443/3 109/234/3
f 112/235/4 113/444/4 108/236/4
f 109/234/3 113/445/3 112/238/3
f 103/239/1 112/446/1 107/240/1
f 109/228/6 106/230/6 108/242/6
f 110/244/2 116/447/2 114/245/2
f 106/230/6 102/229/6 114/247/6
f 111/249/1 110/448/1 115/250/1
f 101/220/8 115/449/7 114/252/7
f 117/253/1 104/450/1 118/254/1
f 105/256/8 104/451/7 117/257/8
f 111/258/5 119/452/4 118/259/5
f 111/261/2 101/453/2 117/262/2
f 120/264/1 125/302/1 121/265/1
f 123/267/3 138/454/3 124/268/3
f 126/270/2 132/455/2 127/271/2
f 129/273/7 120/456/7 122/274/7
f 128/276/6 136/457/6 130/277/6
f 123/267/3 125/269/3 120/279/3
f 131/281/6 133/458/6 127/282/6
f 129/280/3 133/459/3 131/284/3
f 123/285/4 131/460/4 132/286/4
f 129/273/7 128/275/7 127/288/8
f 130/290/2 136/461/2 134/291/2
f 128/275/7 122/274/7 134/293/8
f 121/295/4 126/462/4 130/296/4
f 121/265/1 135/463/1 134/298/1
f 137/299/4 124/464/4 138/300/4
f 125/302/1 124/465/1 137/303/1
f 126/304/6 139/466/6 138/305/6
f 121/307/2 137/467/2 139/308/2
f 140/310/5 143/349/4 141/311/4
f 143/313/3 151/326/3 144/314/3
f 146/316/2 153/468/2 147/317/2
f 149/319/1 140/469/1 142/320/1
f 148/322/8 157/470/8 150/323/8
f 143/313/3 140/471/3 149/325/3
f 152/327/8 154/472/8 147/328/8
f 151/326/3 149/325/3 154/330/3
f 151/332/6 152/473/6 153/333/6
f 149/319/1 148/321/1 147/335/1
f 150/337/2 157/474/2 155/338/2
f 148/321/1 142/320/1 155/340/1
f 146/342/6 150/475/6 156/343/6
f 141/311/4 156/476/4 155/345/4
f 158/346/6 145/477/6 144/347/6
f 143/349/4 145/478/5 158/350/4
f 146/351/7 159/479/7 144/352/7
f 141/354/2 158/480/2 159/355/2
