# Blender v3.1.2 OBJ File: ''
# www.blender.org
mtllib b_tele.mtl
o Cube
v 1.000000 1.000000 -1.000000
v 1.000000 -1.000000 -1.000000
v 1.000000 1.000000 1.000000
v 1.000000 -1.000000 1.000000
v -1.000000 1.000000 -1.000000
v -1.000000 -1.000000 -1.000000
v -1.000000 1.000000 1.000000
v -1.000000 -1.000000 1.000000
v 1.224433 0.000000 -1.224433
v -1.224433 0.000000 1.224433
v 1.224433 0.000000 1.224433
v -1.224433 0.000000 -1.224433
v 0.000000 1.000000 1.000000
v 1.000000 1.000000 0.000000
v -1.000000 1.000000 0.000000
v 0.000000 1.000000 -1.000000
v 0.000000 1.000000 0.000000
v -0.500000 2.827403 0.500000
v 0.500000 2.870210 0.500000
v 0.500000 2.786539 -0.500000
v -0.500000 2.704221 -0.500000
vt 0.750000 0.750000
vt 0.750000 0.625000
vt 0.750000 0.750000
vt 0.625000 0.875000
vt 0.625000 1.000000
vt 0.500000 1.000000
vt 0.625000 0.125000
vt 0.625000 0.250000
vt 0.500000 0.250000
vt 0.375000 0.500000
vt 0.125000 0.750000
vt 0.125000 0.500000
vt 0.625000 0.625000
vt 0.625000 0.750000
vt 0.500000 0.750000
vt 0.625000 0.375000
vt 0.625000 0.500000
vt 0.500000 0.500000
vt 0.375000 0.250000
vt 0.375000 0.750000
vt 0.500000 0.000000
vt 0.375000 0.000000
vt 0.375000 1.000000
vt 0.625000 0.625000
vt 0.750000 0.625000
vt 0.625000 0.250000
vt 0.750000 0.625000
vt 0.625000 0.000000
vt 0.625000 0.125000
vt 0.875000 0.625000
vt 0.750000 0.625000
vt 0.625000 1.000000
vt 0.750000 0.500000
vt 0.750000 0.500000
vt 0.625000 0.875000
vt 0.625000 0.750000
vt 0.875000 0.625000
vt 0.625000 0.500000
vt 0.625000 0.625000
vt 0.750000 0.625000
vt 0.625000 0.375000
vn 0.9645 0.2639 0.0000
vn 0.0000 0.2190 0.9757
vn -0.9757 0.2190 0.0000
vn 0.0000 -1.0000 0.0000
vn 0.9757 0.2190 0.0000
vn 0.0000 0.2190 -0.9757
vn 0.0000 -0.2190 -0.9757
vn 0.9757 -0.2190 0.0000
vn -0.9757 -0.2190 0.0000
vn 0.0000 -0.2190 0.9757
vn 0.0000 0.2583 -0.9661
vn 0.0000 0.2695 0.9630
vn -0.9596 0.2815 0.0000
vn -0.9661 0.2583 0.0000
vn -0.9645 0.2639 0.0000
vn 0.0000 0.2639 -0.9645
vn 0.0000 0.2639 0.9645
vn -0.9630 0.2695 0.0000
vn 0.0000 0.2583 0.9661
vn 0.9661 0.2583 0.0000
vn 0.0000 0.2815 0.9596
vn 0.0000 0.2695 -0.9630
vn 0.9630 0.2695 0.0000
vn 0.9596 0.2815 0.0000
vn 0.0000 0.2815 -0.9596
usemtl Material
s off
f 13/1/1 17/2/1 18/3/1
f 13/4/2 7/5/2 10/6/2
f 15/7/3 5/8/3 12/9/3
f 2/10/4 8/11/4 6/12/4
f 14/13/5 3/14/5 11/15/5
f 16/16/6 1/17/6 9/18/6
f 12/9/7 2/10/7 6/19/7
f 9/18/8 4/20/8 2/10/8
f 10/21/9 6/19/9 8/22/9
f 11/15/10 8/23/10 4/20/10
f 14/13/11 17/2/11 19/24/11
f 17/2/12 14/13/12 20/25/12
f 5/8/13 15/7/13 21/26/13
f 17/2/14 13/1/14 19/27/14
f 15/7/15 7/28/15 18/29/15
f 17/2/16 15/30/16 18/31/16
f 7/5/17 13/4/17 18/32/17
f 16/33/18 17/2/18 20/34/18
f 13/4/19 3/14/19 19/35/19
f 3/14/20 14/13/20 19/36/20
f 15/30/21 17/2/21 21/37/21
f 1/17/22 16/16/22 20/38/22
f 14/13/23 1/17/23 20/39/23
f 17/2/24 16/33/24 21/40/24
f 16/16/25 5/8/25 21/41/25
f 10/6/2 11/15/2 13/4/2
f 11/15/2 3/14/2 13/4/2
f 12/9/3 10/21/3 15/7/3
f 10/21/3 7/28/3 15/7/3
f 2/10/4 4/20/4 8/11/4
f 11/15/5 9/18/5 14/13/5
f 9/18/5 1/17/5 14/13/5
f 9/18/6 12/9/6 16/16/6
f 12/9/6 5/8/6 16/16/6
f 12/9/7 9/18/7 2/10/7
f 9/18/8 11/15/8 4/20/8
f 10/21/9 12/9/9 6/19/9
f 11/15/10 10/6/10 8/23/10
