# Blender v3.1.2 OBJ File: ''
# www.blender.org
mtllib bossbody.mtl
o Cube.005
v -1.080003 0.974443 -0.964787
v -1.090096 -1.008691 1.036355
v -1.081214 0.983440 1.027363
v 0.903266 -1.026564 -0.954547
v 0.902055 -1.017569 1.037604
v -1.088886 -1.017688 -0.955796
v 0.912147 0.965566 -0.963537
v 0.910938 0.974562 1.028614
vt 0.875000 0.500000
vt 0.625000 0.750000
vt 0.625000 0.500000
vt 0.375000 1.000000
vt 0.375000 0.750000
vt 0.625000 0.000000
vt 0.375000 0.250000
vt 0.375000 0.000000
vt 0.375000 0.500000
vt 0.125000 0.750000
vt 0.125000 0.500000
vt 0.625000 0.250000
vt 0.875000 0.750000
vt 0.625000 1.000000
vn -1.0000 0.0045 -0.0006
vn -0.0045 -1.0000 0.0045
vn 0.0006 -0.0045 -1.0000
vn 1.0000 -0.0045 0.0006
vn -0.0006 0.0045 1.0000
vn 0.0045 1.0000 -0.0045
usemtl Material.005
s 1
f 1/1/1 2/2/1 3/3/1
f 2/2/2 4/4/2 5/5/2
f 6/6/3 7/7/3 4/8/3
f 8/9/4 4/10/4 7/11/4
f 3/3/5 5/5/5 8/9/5
f 1/12/6 8/9/6 7/7/6
f 1/1/1 6/13/1 2/2/1
f 2/2/2 6/14/2 4/4/2
f 6/6/3 1/12/3 7/7/3
f 8/9/4 5/5/4 4/10/4
f 3/3/5 2/2/5 5/5/5
f 1/12/6 3/3/6 8/9/6
